# xmcd
#
# Track frame offsets: 
#        150
#        18992
#        32959
#        49747
#        77221
#        83496
#        98925
#        129450
#        141196
#        156763
#        167844
#        182666
#        222756
#        229281
#        243712
#        262313
#        267338
#        282207
#
# Disc length: 3899 seconds
#
# Revision: 0
# Processed by: cddbd v1.5.2PL0 Copyright (c) Steve Scherf et al.
# Submitted via: ExactAudioCopy v0.95a5
#
DISCID=040f3912
DTITLE=胎教音乐3 - 胎教音乐3
DYEAR=2006
DGENRE=Blues
TTITLE0=圣母颂
TTITLE1=弦乐小夜曲
TTITLE2=第二华尔兹
TTITLE3=月光鸣奏曲
TTITLE4=第二组曲
TTITLE5=哈利路亚
TTITLE6=花之圆舞曲
TTITLE7=布兰诗歌
TTITLE8=爱情曲
TTITLE9=儿时情景
TTITLE10=军刀舞曲
TTITLE11=钟神
TTITLE12=小天鹅之舞
TTITLE13=吉他协奏曲
TTITLE14=别离曲
TTITLE15=哥萨克民族舞曲
TTITLE16=曼陀铃协奏曲
TTITLE17=匈牙利舞曲5号
EXTD=
EXTT0=
EXTT1=
EXTT2=
EXTT3=
EXTT4=
EXTT5=
EXTT6=
EXTT7=
EXTT8=
EXTT9=
EXTT10=
EXTT11=
EXTT12=
EXTT13=
EXTT14=
EXTT15=
EXTT16=
EXTT17=
PLAYORDER=
